<svg aria-hidden="true" style="position: absolute; width: 0; height: 0; overflow: hidden;" version="1.1" xmlns="http://www.w3.org/2000/svg" xmlns:xlink="http://www.w3.org/1999/xlink">
<defs>
<symbol id="icon-facebook" viewBox="0 0 33 32">
<path d="M32.388 16c0-8.837-7.163-16-16-16s-16 7.163-16 16c0 7.986 5.851 14.605 13.5 15.806v-11.181h-4.063v-4.625h4.063v-3.525c0-4.010 2.389-6.225 6.043-6.225 1.75 0 3.582 0.313 3.582 0.313v3.938h-2.017c-1.988 0-2.608 1.233-2.608 2.5v3h4.438l-0.709 4.625h-3.728v11.181c7.649-1.2 13.5-7.82 13.5-15.806z"></path>
</symbol>
<symbol id="icon-instagram" viewBox="0 0 33 32">
<path d="M17.164 2.881c4.275 0 4.781 0.019 6.463 0.094 1.562 0.069 2.406 0.331 2.969 0.55 0.744 0.288 1.281 0.638 1.838 1.194 0.562 0.563 0.906 1.094 1.194 1.838 0.219 0.563 0.481 1.412 0.55 2.969 0.075 1.688 0.094 2.194 0.094 6.463 0 4.275-0.019 4.781-0.094 6.463-0.069 1.562-0.331 2.406-0.55 2.969-0.288 0.744-0.638 1.281-1.194 1.838-0.563 0.562-1.094 0.906-1.838 1.194-0.562 0.219-1.413 0.481-2.969 0.55-1.688 0.075-2.194 0.094-6.463 0.094-4.275 0-4.781-0.019-6.463-0.094-1.563-0.069-2.406-0.331-2.969-0.55-0.744-0.288-1.281-0.638-1.838-1.194-0.563-0.562-0.906-1.094-1.194-1.838-0.219-0.562-0.481-1.413-0.55-2.969-0.075-1.688-0.094-2.194-0.094-6.463 0-4.275 0.019-4.781 0.094-6.463 0.069-1.563 0.331-2.406 0.55-2.969 0.287-0.744 0.638-1.281 1.194-1.838 0.563-0.563 1.094-0.906 1.838-1.194 0.563-0.219 1.412-0.481 2.969-0.55 1.681-0.075 2.188-0.094 6.463-0.094zM17.164 0c-4.344 0-4.888 0.019-6.594 0.094-1.7 0.075-2.869 0.35-3.881 0.744-1.056 0.412-1.95 0.956-2.837 1.85-0.894 0.888-1.438 1.781-1.85 2.831-0.394 1.019-0.669 2.181-0.744 3.881-0.075 1.713-0.094 2.256-0.094 6.6s0.019 4.888 0.094 6.594c0.075 1.7 0.35 2.869 0.744 3.881 0.413 1.056 0.956 1.95 1.85 2.837 0.887 0.888 1.781 1.438 2.831 1.844 1.019 0.394 2.181 0.669 3.881 0.744 1.706 0.075 2.25 0.094 6.594 0.094s4.887-0.019 6.594-0.094c1.7-0.075 2.869-0.35 3.881-0.744 1.050-0.406 1.944-0.956 2.831-1.844s1.438-1.781 1.844-2.831c0.394-1.019 0.669-2.181 0.744-3.881 0.075-1.706 0.094-2.25 0.094-6.594s-0.019-4.887-0.094-6.594c-0.075-1.7-0.35-2.869-0.744-3.881-0.394-1.063-0.937-1.956-1.831-2.844-0.887-0.887-1.781-1.438-2.831-1.844-1.019-0.394-2.181-0.669-3.881-0.744-1.713-0.081-2.256-0.1-6.6-0.1z"></path>
<path d="M17.164 7.781c-4.537 0-8.219 3.681-8.219 8.219s3.681 8.219 8.219 8.219c4.537 0 8.219-3.681 8.219-8.219s-3.681-8.219-8.219-8.219zM17.164 21.331c-2.944 0-5.331-2.387-5.331-5.331s2.387-5.331 5.331-5.331c2.944 0 5.331 2.387 5.331 5.331s-2.387 5.331-5.331 5.331z"></path>
<path d="M27.626 7.456c0 1.063-0.863 1.919-1.919 1.919-1.063 0-1.919-0.863-1.919-1.919 0-1.063 0.862-1.919 1.919-1.919s1.919 0.862 1.919 1.919z"></path>
</symbol>
<symbol id="icon-x" viewBox="0 0 32 32">
<path d="M32 16c0-8.837-7.163-16-16-16s-16 7.163-16 16c0 8.837 7.163 16 16 16s16-7.163 16-16zM13.792 16.955l-7.648-10.226h5.894l5.014 6.704 6.205-6.704h1.732l-7.163 7.739 8.078 10.801h-5.894l-5.444-7.279-6.738 7.279h-1.732l7.696-8.314zM11.399 8.005h-2.708l11.957 15.988h2.708l-11.957-15.988z"></path>
</symbol>
<symbol id="icon-youtube" viewBox="0 0 33 32">
<path d="M31.778 9.6c0 0-0.312-2.206-1.275-3.175-1.219-1.275-2.581-1.281-3.206-1.356-4.475-0.325-11.194-0.325-11.194-0.325h-0.012c0 0-6.719 0-11.194 0.325-0.625 0.075-1.987 0.081-3.206 1.356-0.963 0.969-1.269 3.175-1.269 3.175s-0.325 2.594-0.325 5.181v2.425c0 2.587 0.319 5.181 0.319 5.181s0.312 2.206 1.269 3.175c1.219 1.275 2.819 1.231 3.531 1.369 2.563 0.244 10.881 0.319 10.881 0.319s6.725-0.012 11.2-0.331c0.625-0.075 1.988-0.081 3.206-1.356 0.963-0.969 1.275-3.175 1.275-3.175s0.319-2.587 0.319-5.181v-2.425c0-2.587-0.319-5.181-0.319-5.181zM12.791 20.15v-8.994l8.644 4.512-8.644 4.481z"></path>
</symbol>
<symbol id="icon-tiktok" viewBox="0 0 33 32">
<path d="M23.248 0h-5.393v21.797c0 2.597-2.074 4.73-4.655 4.73s-4.655-2.133-4.655-4.73c0-2.551 2.028-4.638 4.517-4.73v-5.472c-5.485 0.093-9.91 4.591-9.91 10.203 0 5.658 4.517 10.203 10.094 10.203s10.094-4.591 10.094-10.203v-11.177c2.028 1.484 4.517 2.365 7.145 2.412v-5.473c-4.056-0.139-7.237-3.478-7.237-7.559z"></path>
</symbol>
<symbol id="icon-whatsapp" viewBox="0 0 33 32">
<path d="M32.763 23.882v0l0.013-15.764c0-0.184 0-0.564-0.013-0.852-0.026-0.708-0.092-1.626-0.17-2.046-0.131-0.643-0.328-1.246-0.577-1.744-0.302-0.59-0.682-1.115-1.141-1.574s-0.984-0.839-1.574-1.141c-0.498-0.249-1.102-0.446-1.731-0.577-0.433-0.092-1.351-0.144-2.072-0.171-0.302-0.013-0.682-0.013-0.852-0.013h-15.751c-0.171 0-0.551 0-0.839 0.013-0.721 0.026-1.639 0.079-2.059 0.171-0.643 0.131-1.246 0.328-1.744 0.577-0.59 0.302-1.115 0.682-1.574 1.141s-0.839 0.984-1.141 1.574c-0.249 0.498-0.446 1.102-0.577 1.731-0.079 0.42-0.144 1.351-0.17 2.059-0.013 0.302-0.013 0.682-0.013 0.852v16.629c0.026 0.708 0.092 1.626 0.17 2.046 0.131 0.643 0.328 1.246 0.577 1.744 0.302 0.59 0.682 1.115 1.141 1.574s0.984 0.839 1.574 1.141c0.498 0.249 1.102 0.446 1.731 0.577 0.433 0.092 1.351 0.144 2.072 0.17 0.302 0.013 0.682 0.013 0.852 0.013h15.751c0.184 0 0.564 0 0.852-0.013 0.708-0.026 1.626-0.092 2.046-0.17 0.643-0.131 1.246-0.328 1.744-0.577 0.59-0.302 1.115-0.682 1.574-1.141s0.839-0.984 1.141-1.574c0.249-0.498 0.446-1.102 0.577-1.731 0.092-0.433 0.144-1.351 0.17-2.072 0.013-0.302 0.013-0.682 0.013-0.852zM17.13 4.21c3.069 0 5.954 1.193 8.118 3.357s3.357 5.049 3.357 8.105c0 6.334-5.154 11.475-11.475 11.475-1.915 0-3.803-0.472-5.482-1.39l-6.085 1.6 1.626-5.941c-1.010-1.731-1.534-3.711-1.534-5.731 0-6.334 5.154-11.475 11.475-11.475zM12.277 23.895c1.456 0.866 3.134 1.325 4.853 1.325 5.259 0 9.534-4.275 9.534-9.547 0-2.544-0.997-4.944-2.793-6.741s-4.197-2.793-6.741-2.793c-5.259 0-9.534 4.275-9.534 9.534 0 1.797 0.498 3.554 1.456 5.075l0.223 0.367-0.957 3.515 3.607-0.944 0.354 0.21zM20.409 17.141c0.262 0.092 1.665 0.787 1.954 0.931 0.054 0.027 0.105 0.052 0.153 0.075 0.206 0.1 0.35 0.17 0.424 0.266 0.066 0.118 0.066 0.695-0.17 1.364-0.249 0.669-1.39 1.285-1.941 1.364-0.498 0.066-1.128 0.105-1.81-0.118-0.42-0.131-0.957-0.302-1.639-0.603-2.703-1.173-4.524-3.798-4.849-4.266-0.020-0.029-0.035-0.050-0.043-0.062-0.004-0.005-0.008-0.011-0.013-0.017-0.183-0.249-1.154-1.566-1.154-2.947 0-1.306 0.647-1.998 0.948-2.321 0.023-0.024 0.043-0.046 0.061-0.066 0.262-0.289 0.564-0.354 0.761-0.354s0.38 0 0.551 0.013c0.021 0.002 0.044 0.002 0.067 0.002 0.163 0.001 0.369 0.003 0.575 0.496 0.107 0.255 0.283 0.683 0.45 1.090 0.203 0.494 0.393 0.955 0.429 1.034 0.079 0.144 0.118 0.302 0.026 0.498-0.009 0.017-0.017 0.034-0.025 0.050-0.078 0.156-0.133 0.268-0.264 0.422-0.063 0.069-0.129 0.148-0.194 0.226-0.083 0.1-0.165 0.199-0.239 0.273-0.144 0.144-0.302 0.302-0.131 0.59l0.010 0.016c0.182 0.294 0.753 1.218 1.59 1.965 0.921 0.811 1.713 1.155 2.117 1.33 0.079 0.034 0.144 0.062 0.191 0.086 0.289 0.144 0.446 0.131 0.616-0.066s0.708-0.839 0.905-1.128c0.184-0.289 0.38-0.236 0.643-0.144z"></path>
</symbol>
<symbol id="icon-email" viewBox="0 0 32 32">
<path d="M25.333 1.6h-18.667c-1.767 0.002-3.462 0.705-4.712 1.955s-1.953 2.944-1.955 4.712v16c0.002 1.767 0.705 3.462 1.955 4.712s2.944 1.953 4.712 1.955h18.667c1.768-0.002 3.462-0.705 4.712-1.955s1.953-2.944 1.955-4.712v-16c-0.002-1.767-0.705-3.462-1.955-4.712s-2.944-1.953-4.712-1.955zM6.667 4.267h18.667c0.798 0.002 1.578 0.242 2.239 0.69s1.172 1.084 1.468 1.826l-10.211 10.212c-0.751 0.748-1.769 1.169-2.829 1.169s-2.078-0.42-2.829-1.169l-10.211-10.212c0.296-0.741 0.808-1.377 1.468-1.826s1.44-0.689 2.239-0.69zM25.333 28.267h-18.667c-1.061 0-2.078-0.421-2.828-1.172s-1.172-1.768-1.172-2.828v-14l8.619 8.613c1.252 1.248 2.947 1.949 4.715 1.949s3.463-0.701 4.715-1.949l8.619-8.613v14c0 1.061-0.421 2.078-1.172 2.828s-1.768 1.172-2.828 1.172z"></path>
</symbol>
<symbol id="icon-phone" viewBox="0 0 32 32">
<path d="M17.281 1.335c0-0.354 0.14-0.693 0.39-0.943s0.589-0.391 0.943-0.391c3.535 0.004 6.924 1.41 9.424 3.91s3.906 5.889 3.909 9.424c0 0.354-0.14 0.693-0.391 0.943s-0.589 0.391-0.943 0.391-0.693-0.14-0.943-0.391c-0.25-0.25-0.391-0.589-0.391-0.943-0.003-2.828-1.128-5.539-3.128-7.539s-4.711-3.125-7.539-3.128c-0.354 0-0.693-0.14-0.943-0.391s-0.39-0.589-0.39-0.943zM18.615 8.002c1.414 0 2.771 0.562 3.771 1.562s1.562 2.357 1.562 3.771c0 0.354 0.14 0.693 0.391 0.943s0.589 0.391 0.943 0.391c0.354 0 0.693-0.14 0.943-0.391s0.391-0.589 0.391-0.943c-0.002-2.121-0.846-4.155-2.345-5.655s-3.533-2.343-5.655-2.345c-0.354 0-0.693 0.14-0.943 0.391s-0.39 0.589-0.39 0.943 0.14 0.693 0.39 0.943c0.25 0.25 0.589 0.391 0.943 0.391zM30.739 22.321c0.773 0.775 1.207 1.824 1.207 2.919s-0.434 2.144-1.207 2.919l-1.213 1.399c-10.92 10.455-37.493-16.112-27.2-27.067l1.533-1.333c0.776-0.751 1.816-1.167 2.896-1.157s2.112 0.445 2.874 1.21c0.041 0.041 2.512 3.251 2.512 3.251 0.733 0.77 1.141 1.793 1.139 2.857s-0.413 2.085-1.149 2.853l-1.544 1.941c0.854 2.076 2.111 3.963 3.697 5.552s3.47 2.849 5.545 3.708l1.953-1.553c0.768-0.735 1.789-1.146 2.852-1.148s2.086 0.407 2.856 1.14c0 0 3.208 2.469 3.249 2.511zM28.904 24.26c0 0-3.191-2.455-3.232-2.496-0.275-0.272-0.646-0.425-1.033-0.425s-0.758 0.153-1.033 0.425c-0.036 0.037-2.725 2.18-2.725 2.18-0.181 0.144-0.397 0.239-0.626 0.274s-0.463 0.011-0.68-0.072c-2.687-1-5.128-2.567-7.157-4.593s-3.599-4.465-4.604-7.151c-0.089-0.219-0.118-0.459-0.084-0.693s0.13-0.455 0.277-0.64c0 0 2.143-2.691 2.179-2.725 0.272-0.275 0.425-0.646 0.425-1.033s-0.153-0.758-0.425-1.033c-0.041-0.040-2.496-3.233-2.496-3.233-0.279-0.25-0.643-0.384-1.017-0.374s-0.731 0.162-0.996 0.426l-1.533 1.333c-7.523 9.045 15.505 30.796 23.432 23.305l1.215-1.4c0.285-0.264 0.456-0.628 0.477-1.015s-0.109-0.768-0.364-1.061z"></path>
</symbol>
<symbol id="icon-location" viewBox="0 0 32 32">
<path d="M16 8c-1.055 0-2.086 0.313-2.963 0.899s-1.561 1.419-1.964 2.394c-0.404 0.975-0.509 2.047-0.303 3.081s0.714 1.985 1.46 2.731c0.746 0.746 1.696 1.254 2.731 1.46s2.107 0.1 3.081-0.304c0.975-0.404 1.808-1.087 2.393-1.964s0.899-1.908 0.899-2.963c0-1.414-0.562-2.771-1.562-3.771s-2.357-1.562-3.771-1.562zM16 16c-0.527 0-1.043-0.156-1.482-0.449s-0.78-0.71-0.982-1.197c-0.202-0.487-0.255-1.023-0.152-1.541s0.357-0.992 0.73-1.365c0.373-0.373 0.848-0.627 1.365-0.73s1.053-0.050 1.541 0.152c0.487 0.202 0.904 0.544 1.197 0.982s0.449 0.954 0.449 1.482c0 0.707-0.281 1.386-0.781 1.886s-1.178 0.781-1.886 0.781z"></path>
<path d="M16.607 32.003c-1.123 0.006-2.231-0.258-3.231-0.768s-1.863-1.253-2.517-2.165c-5.081-7.009-7.659-12.279-7.659-15.663 0-3.556 1.412-6.966 3.927-9.48s5.924-3.927 9.48-3.927c3.556 0 6.966 1.413 9.48 3.927s3.927 5.924 3.927 9.48c0 3.384-2.577 8.653-7.659 15.663-0.654 0.913-1.517 1.655-2.517 2.165s-2.108 0.774-3.231 0.768zM16.607 2.911c-2.784 0.003-5.452 1.11-7.42 3.079s-3.075 4.637-3.079 7.42c0 2.68 2.524 7.636 7.105 13.955 0.389 0.536 0.899 0.972 1.489 1.272s1.242 0.457 1.904 0.457c0.662 0 1.315-0.157 1.904-0.457s1.1-0.737 1.489-1.272c4.581-6.319 7.105-11.275 7.105-13.955-0.003-2.783-1.11-5.452-3.078-7.42s-4.637-3.075-7.42-3.079z"></path>
</symbol>
<symbol id="icon-star" viewBox="0 0 33 32">
<path d="M31.384 14.701l-6.264 5.467 1.876 8.139c0.099 0.425 0.071 0.871-0.081 1.28s-0.422 0.765-0.775 1.022c-0.353 0.257-0.775 0.404-1.211 0.423s-0.869-0.091-1.243-0.317l-7.099-4.306-7.083 4.306c-0.374 0.226-0.807 0.336-1.243 0.317s-0.858-0.166-1.211-0.423c-0.353-0.257-0.623-0.612-0.776-1.022s-0.181-0.855-0.081-1.28l1.874-8.131-6.265-5.475c-0.331-0.286-0.571-0.663-0.689-1.084s-0.109-0.868 0.027-1.284c0.135-0.416 0.39-0.783 0.733-1.055s0.758-0.436 1.195-0.473l8.258-0.715 3.224-7.689c0.168-0.403 0.452-0.748 0.816-0.99s0.791-0.372 1.228-0.372 0.865 0.129 1.228 0.372c0.364 0.242 0.648 0.587 0.816 0.99l3.233 7.689 8.256 0.715c0.436 0.037 0.852 0.201 1.195 0.473s0.598 0.639 0.733 1.055c0.135 0.416 0.144 0.863 0.027 1.284s-0.357 0.799-0.689 1.084h-0.007z"></path>
</symbol>
<symbol id="icon-menu" viewBox="0 0 26 32">
<path d="M19.059 20.094c0 0.312-0.124 0.611-0.345 0.832s-0.52 0.345-0.832 0.345h-9.412c-0.312 0-0.611-0.124-0.832-0.345s-0.345-0.52-0.345-0.832 0.124-0.611 0.345-0.832c0.221-0.221 0.52-0.345 0.832-0.345h9.412c0.312 0 0.611 0.124 0.832 0.345s0.345 0.52 0.345 0.832zM17.882 14.212h-9.412c-0.312 0-0.611 0.124-0.832 0.345s-0.345 0.52-0.345 0.832 0.124 0.611 0.345 0.832c0.221 0.221 0.52 0.345 0.832 0.345h9.412c0.312 0 0.611-0.124 0.832-0.345s0.345-0.52 0.345-0.832-0.124-0.611-0.345-0.832c-0.221-0.221-0.52-0.345-0.832-0.345zM26.118 4.8v24.706c0 0.624-0.248 1.223-0.689 1.664s-1.040 0.689-1.664 0.689h-21.176c-0.624 0-1.223-0.248-1.664-0.689s-0.689-1.040-0.689-1.664v-24.706c0-0.624 0.248-1.223 0.689-1.664s1.040-0.689 1.664-0.689h5.332c0.661-0.74 1.471-1.332 2.377-1.738s1.887-0.615 2.879-0.615 1.973 0.21 2.879 0.615c0.906 0.405 1.716 0.998 2.377 1.738h5.332c0.624 0 1.223 0.248 1.664 0.689s0.689 1.040 0.689 1.664zM8.471 7.153h9.412c0-1.248-0.496-2.445-1.378-3.328s-2.079-1.378-3.328-1.378c-1.248 0-2.445 0.496-3.328 1.378s-1.378 2.079-1.378 3.328zM23.765 4.8h-3.934c0.268 0.756 0.404 1.551 0.404 2.353v1.176c0 0.312-0.124 0.611-0.345 0.832s-0.52 0.345-0.832 0.345h-11.765c-0.312 0-0.611-0.124-0.832-0.345s-0.345-0.52-0.345-0.832v-1.176c0-0.802 0.137-1.597 0.404-2.353h-3.934v24.706h21.176v-24.706z"></path>
</symbol>
<symbol id="icon-spaces" viewBox="0 0 38 32">
<path d="M34.783 0h-31.884c-0.769 0-1.506 0.305-2.050 0.849s-0.849 1.281-0.849 2.050v26.087c0 0.769 0.305 1.506 0.849 2.050s1.281 0.849 2.050 0.849h2.426c0.274 0 0.543-0.078 0.775-0.224s0.417-0.356 0.535-0.604c0.705-1.488 1.817-2.745 3.209-3.626s3.004-1.348 4.65-1.348 3.259 0.467 4.65 1.348c1.391 0.88 2.504 2.138 3.209 3.626 0.118 0.248 0.303 0.457 0.535 0.604s0.501 0.224 0.775 0.224h11.121c0.769 0 1.506-0.305 2.050-0.849s0.849-1.281 0.849-2.050v-26.087c0-0.769-0.305-1.506-0.849-2.050s-1.281-0.849-2.050-0.849zM10.145 18.841c0-0.86 0.255-1.701 0.733-2.416s1.157-1.272 1.951-1.601c0.794-0.329 1.669-0.415 2.512-0.247s1.618 0.582 2.226 1.19 1.022 1.383 1.19 2.226c0.168 0.843 0.082 1.718-0.247 2.512s-0.886 1.473-1.601 1.951c-0.715 0.478-1.556 0.733-2.416 0.733-1.153 0-2.259-0.458-3.074-1.273s-1.273-1.921-1.273-3.074zM34.783 28.985h-10.248c-1.21-2.081-3.035-3.736-5.223-4.739 1.097-0.977 1.871-2.264 2.22-3.691s0.256-2.926-0.267-4.299-1.45-2.554-2.66-3.388c-1.209-0.834-2.644-1.28-4.113-1.28s-2.903 0.446-4.113 1.28c-1.209 0.834-2.137 2.015-2.66 3.388s-0.616 2.872-0.267 4.299c0.349 1.427 1.123 2.714 2.22 3.691-2.188 1.003-4.013 2.658-5.223 4.739h-1.553v-26.087h31.884v26.087zM5.797 10.145v-2.899c0-0.384 0.153-0.753 0.425-1.025s0.64-0.425 1.025-0.425h23.188c0.384 0 0.753 0.153 1.025 0.425s0.424 0.64 0.424 1.025v17.391c0 0.384-0.153 0.753-0.424 1.025s-0.64 0.424-1.025 0.424h-2.899c-0.384 0-0.753-0.153-1.025-0.424s-0.424-0.64-0.424-1.025 0.153-0.753 0.424-1.025c0.272-0.272 0.64-0.424 1.025-0.424h1.449v-14.493h-20.29v1.449c0 0.384-0.153 0.753-0.425 1.025s-0.64 0.425-1.025 0.425-0.753-0.153-1.025-0.425c-0.272-0.272-0.425-0.64-0.425-1.025z"></path>
</symbol>
<symbol id="icon-internet" viewBox="0 0 42 32">
<path d="M23.254 29.463c0 0.443-0.131 0.876-0.377 1.244s-0.596 0.655-1.005 0.825c-0.409 0.169-0.859 0.214-1.294 0.127s-0.833-0.3-1.146-0.613c-0.313-0.313-0.526-0.712-0.613-1.146s-0.042-0.884 0.127-1.294c0.169-0.409 0.456-0.759 0.825-1.005s0.801-0.377 1.244-0.377c0.594 0 1.163 0.236 1.583 0.656s0.656 0.989 0.656 1.583zM41.366 7.634c-5.738-4.706-12.93-7.279-20.351-7.279s-14.613 2.572-20.351 7.279c-0.152 0.124-0.277 0.278-0.369 0.451s-0.15 0.362-0.169 0.558 0 0.392 0.057 0.58c0.057 0.188 0.15 0.362 0.275 0.514s0.278 0.277 0.451 0.369c0.173 0.092 0.362 0.15 0.558 0.169 0.394 0.039 0.788-0.081 1.094-0.332 5.204-4.267 11.726-6.599 18.455-6.599s13.251 2.332 18.455 6.599c0.306 0.251 0.699 0.371 1.094 0.332s0.757-0.232 1.008-0.538c0.251-0.306 0.371-0.699 0.332-1.094s-0.232-0.757-0.538-1.008zM35.381 14.308c-4.087-3.236-9.147-4.996-14.36-4.996s-10.273 1.761-14.36 4.996c-0.31 0.246-0.51 0.605-0.556 0.998s0.067 0.789 0.313 1.099c0.246 0.31 0.605 0.51 0.998 0.556s0.788-0.067 1.099-0.313c3.559-2.817 7.966-4.35 12.506-4.35s8.946 1.533 12.506 4.35c0.154 0.122 0.33 0.212 0.518 0.266s0.386 0.070 0.581 0.047c0.195-0.023 0.383-0.083 0.554-0.179s0.322-0.223 0.444-0.377c0.122-0.154 0.212-0.33 0.266-0.518s0.070-0.386 0.047-0.581c-0.023-0.195-0.083-0.383-0.179-0.554s-0.223-0.322-0.377-0.444zM29.362 20.98c-2.424-1.762-5.344-2.711-8.341-2.711s-5.917 0.949-8.341 2.711c-0.32 0.233-0.535 0.584-0.596 0.975s0.035 0.791 0.268 1.111c0.233 0.32 0.584 0.535 0.975 0.596s0.791-0.035 1.111-0.268c1.913-1.391 4.218-2.141 6.584-2.141s4.671 0.75 6.584 2.141c0.159 0.115 0.338 0.198 0.529 0.244s0.388 0.054 0.582 0.023c0.194-0.031 0.379-0.099 0.547-0.201s0.313-0.237 0.428-0.395 0.198-0.338 0.244-0.529c0.046-0.191 0.054-0.388 0.023-0.582s-0.099-0.38-0.201-0.547-0.236-0.313-0.395-0.428z"></path>
</symbol>
<symbol id="icon-coffee" viewBox="0 0 34 32">
<path d="M8.683 6.195v-4.878c0-0.323 0.128-0.634 0.357-0.862s0.539-0.357 0.862-0.357 0.634 0.128 0.862 0.357c0.229 0.229 0.357 0.539 0.357 0.862v4.878c0 0.323-0.128 0.634-0.357 0.862s-0.539 0.357-0.862 0.357-0.634-0.128-0.862-0.357c-0.229-0.229-0.357-0.539-0.357-0.862zM14.78 7.415c0.323 0 0.634-0.128 0.862-0.357s0.357-0.539 0.357-0.862v-4.878c0-0.323-0.128-0.634-0.357-0.862s-0.539-0.357-0.862-0.357-0.634 0.128-0.862 0.357c-0.229 0.229-0.357 0.539-0.357 0.862v4.878c0 0.323 0.128 0.634 0.357 0.862s0.539 0.357 0.862 0.357zM19.659 7.415c0.323 0 0.634-0.128 0.862-0.357s0.357-0.539 0.357-0.862v-4.878c0-0.323-0.128-0.634-0.357-0.862s-0.539-0.357-0.862-0.357-0.634 0.128-0.862 0.357c-0.229 0.229-0.357 0.539-0.357 0.862v4.878c0 0.323 0.128 0.634 0.357 0.862s0.539 0.357 0.862 0.357zM34.293 15.951v1.219c-0 1.551-0.592 3.044-1.654 4.174s-2.515 1.813-4.064 1.91c-0.832 2.353-2.248 4.456-4.116 6.111h3.736c0.323 0 0.634 0.128 0.862 0.357s0.357 0.539 0.357 0.862-0.128 0.634-0.357 0.862c-0.229 0.229-0.539 0.357-0.862 0.357h-26.829c-0.323 0-0.634-0.128-0.862-0.357s-0.357-0.539-0.357-0.862 0.128-0.634 0.357-0.862c0.229-0.229 0.539-0.357 0.862-0.357h3.741c-1.556-1.375-2.803-3.064-3.658-4.956s-1.299-3.944-1.303-6.020v-7.317c0-0.323 0.128-0.634 0.357-0.862s0.539-0.357 0.862-0.357h26.829c1.617 0 3.168 0.642 4.312 1.786s1.786 2.694 1.786 4.312zM26.976 12.293h-24.39v6.098c0.005 2.29 0.652 4.532 1.868 6.473s2.952 3.5 5.010 4.503h10.634c2.059-1.003 3.794-2.563 5.010-4.503s1.863-4.183 1.868-6.473v-6.098zM31.854 15.951c-0-0.756-0.235-1.494-0.672-2.112s-1.054-1.085-1.767-1.337v5.887c-0.001 0.766-0.062 1.53-0.183 2.287 0.757-0.224 1.421-0.686 1.893-1.318s0.728-1.4 0.729-2.189v-1.22z"></path>
</symbol>
<symbol id="icon-arrow" viewBox="0 0 27 32">
<path d="M26.277 19.61l-12 12c-0.124 0.124-0.271 0.222-0.433 0.289s-0.335 0.102-0.511 0.102-0.349-0.035-0.511-0.102c-0.162-0.067-0.309-0.165-0.433-0.289l-12-12c-0.25-0.25-0.391-0.589-0.391-0.943s0.141-0.693 0.391-0.943c0.25-0.25 0.59-0.391 0.943-0.391s0.693 0.141 0.943 0.391l9.723 9.725v-26.115c0-0.354 0.14-0.693 0.391-0.943s0.589-0.391 0.943-0.391c0.354 0 0.693 0.14 0.943 0.391s0.391 0.589 0.391 0.943v26.115l9.723-9.725c0.25-0.25 0.589-0.391 0.943-0.391s0.693 0.141 0.943 0.391c0.25 0.25 0.391 0.589 0.391 0.943s-0.141 0.693-0.391 0.943z"></path>
</symbol>
<symbol id="icon-basket" viewBox="0 0 36 32">
<path d="M14.769 29.538c0 0.487-0.144 0.963-0.415 1.367s-0.655 0.72-1.105 0.907c-0.45 0.186-0.945 0.235-1.422 0.14s-0.916-0.329-1.26-0.674-0.579-0.783-0.674-1.26c-0.095-0.478-0.046-0.972 0.14-1.422s0.502-0.834 0.907-1.105c0.405-0.271 0.881-0.415 1.368-0.415 0.653 0 1.279 0.259 1.741 0.721s0.721 1.088 0.721 1.741zM28.308 27.077c-0.487 0-0.963 0.144-1.367 0.415s-0.72 0.655-0.907 1.105c-0.186 0.45-0.235 0.945-0.14 1.422s0.329 0.916 0.674 1.26 0.783 0.579 1.26 0.674c0.478 0.095 0.972 0.046 1.422-0.14s0.834-0.502 1.105-0.907c0.271-0.405 0.415-0.881 0.415-1.367 0-0.653-0.259-1.279-0.721-1.741s-1.088-0.721-1.741-0.721zM35.638 7.746l-4.389 14.263c-0.23 0.756-0.697 1.418-1.333 1.887s-1.406 0.721-2.196 0.719h-14.786c-0.802-0.003-1.581-0.266-2.22-0.748s-1.106-1.16-1.329-1.93l-5.566-19.475h-2.588c-0.326 0-0.639-0.13-0.87-0.36s-0.36-0.544-0.36-0.87c0-0.326 0.13-0.639 0.36-0.87s0.544-0.36 0.87-0.36h2.588c0.534 0.002 1.054 0.177 1.481 0.498s0.738 0.773 0.887 1.286l1.248 4.369h27.028c0.193-0 0.383 0.045 0.554 0.132s0.321 0.213 0.436 0.367c0.115 0.155 0.191 0.334 0.224 0.524s0.020 0.385-0.037 0.569zM32.795 8.615h-24.658l3.614 12.646c0.074 0.257 0.229 0.483 0.442 0.644s0.473 0.248 0.741 0.248h14.786c0.263 0 0.52-0.084 0.732-0.241s0.368-0.377 0.445-0.628l3.898-12.669z"></path>
</symbol>
<symbol id="icon-account" viewBox="0 0 34 32">
<path d="M33.065 28.923c-2.343-4.051-5.954-6.955-10.168-8.332 2.084-1.241 3.704-3.132 4.609-5.382s1.048-4.736 0.404-7.075-2.037-4.402-3.966-5.872c-1.929-1.47-4.288-2.267-6.714-2.267s-4.784 0.796-6.714 2.267c-1.929 1.47-3.323 3.533-3.966 5.872s-0.501 4.824 0.404 7.075c0.906 2.25 2.525 4.141 4.61 5.382-4.214 1.375-7.825 4.28-10.168 8.332-0.086 0.14-0.143 0.296-0.168 0.458s-0.017 0.328 0.024 0.488c0.040 0.159 0.112 0.309 0.211 0.44s0.224 0.241 0.366 0.323 0.3 0.135 0.463 0.155c0.163 0.020 0.329 0.008 0.487-0.037s0.306-0.12 0.434-0.223c0.128-0.103 0.235-0.23 0.313-0.374 2.898-5.009 8.022-8 13.703-8s10.805 2.991 13.703 8c0.078 0.144 0.185 0.272 0.313 0.374s0.276 0.178 0.434 0.223c0.158 0.045 0.324 0.057 0.487 0.037s0.321-0.073 0.463-0.155c0.142-0.082 0.267-0.192 0.366-0.323s0.171-0.281 0.211-0.44c0.041-0.159 0.049-0.325 0.024-0.488s-0.082-0.318-0.168-0.458zM8.615 11.077c0-1.704 0.505-3.37 1.452-4.786s2.292-2.521 3.866-3.173c1.574-0.652 3.307-0.823 4.978-0.49s3.206 1.153 4.411 2.358c1.205 1.205 2.025 2.74 2.358 4.411s0.162 3.404-0.49 4.978c-0.652 1.574-1.756 2.92-3.173 3.866s-3.082 1.452-4.786 1.452c-2.284-0.002-4.474-0.911-6.089-2.526s-2.524-3.805-2.526-6.089z"></path>
</symbol>
</defs>
</svg>
